<svg width="25" height="25" viewBox="0 0 25 25" fill="none" xmlns="http://www.w3.org/2000/svg">
<path d="M9.00319 4.57774C9.40101 4.57774 9.78255 4.73578 10.0639 5.01708C10.3452 5.29838 10.5032 5.67992 10.5032 6.07774V6.35774C10.5032 6.75556 10.6612 7.1371 10.9425 7.4184C11.2238 7.6997 11.6054 7.85774 12.0032 7.85774H19.0832C19.481 7.85774 19.8626 8.01577 20.1439 8.29708C20.4252 8.57838 20.5832 8.95991 20.5832 9.35774V17.1177C20.5728 17.5086 20.4101 17.8799 20.13 18.1526C19.8498 18.4253 19.4742 18.5778 19.0832 18.5777H5.08319C4.68537 18.5777 4.30383 18.4197 4.02253 18.1384C3.74123 17.8571 3.58319 17.4755 3.58319 17.0777V6.07774C3.58319 5.67992 3.74123 5.29838 4.02253 5.01708C4.30383 4.73578 4.68537 4.57774 5.08319 4.57774H9.00319ZM9.00319 3.07774H5.08319C4.28754 3.07774 3.52448 3.39381 2.96187 3.95642C2.39926 4.51903 2.08319 5.28209 2.08319 6.07774V17.0777C2.08319 17.8733 2.39926 18.6364 2.96187 19.199C3.52448 19.7616 4.28754 20.0777 5.08319 20.0777H19.0832C19.8788 20.0777 20.6419 19.7616 21.2045 19.199C21.7671 18.6364 22.0832 17.8733 22.0832 17.0777V9.33774C22.0832 8.54209 21.7671 7.77903 21.2045 7.21642C20.6419 6.65381 19.8788 6.33774 19.0832 6.33774H12.0032V6.05774C12.0032 5.26209 11.6871 4.49903 11.1245 3.93642C10.5619 3.37381 9.79884 3.05774 9.00319 3.05774V3.07774Z" fill="#505F79"/>
</svg>
