<svg width="7" height="13" viewBox="0 0 7 13" fill="none" xmlns="http://www.w3.org/2000/svg">
<path d="M6.15001 12.7999C6.05151 12.8004 5.95381 12.7812 5.86281 12.7434C5.77181 12.7056 5.68921 12.65 5.62001 12.5799L0.220012 7.17988C0.0795617 7.03928 0.000671387 6.84868 0.000671387 6.64988C0.000671387 6.45118 0.0795617 6.26058 0.220012 6.11988L5.62001 0.719908C5.68871 0.646218 5.77151 0.587118 5.86351 0.546128C5.95551 0.505138 6.05481 0.483098 6.15551 0.481318C6.25621 0.479538 6.35621 0.498068 6.44961 0.535788C6.54301 0.573508 6.62781 0.629648 6.69901 0.700868C6.77031 0.772088 6.82641 0.856928 6.86411 0.950308C6.90181 1.0437 6.92041 1.14373 6.91861 1.24443C6.91681 1.34514 6.89481 1.44445 6.85381 1.53645C6.81281 1.62845 6.75371 1.71125 6.68001 1.77991L1.81001 6.64988L6.68001 11.4999C6.82041 11.6406 6.89931 11.8312 6.89931 12.0299C6.89931 12.2287 6.82041 12.4193 6.68001 12.5599C6.61281 12.6341 6.53111 12.6937 6.43991 12.735C6.34881 12.7763 6.25011 12.7984 6.15001 12.7999Z" fill="#505F79"/>
</svg>
