<svg width="46" height="45" viewBox="0 0 46 45" fill="none" xmlns="http://www.w3.org/2000/svg">
<path d="M26.2646 6.51552C26.4605 6.51743 26.6493 6.58693 26.7978 6.71177C26.9463 6.83661 27.0447 7.00872 27.0761 7.19766L27.6987 11.4196C28.7144 11.8181 29.6724 12.345 30.5482 12.9867L34.5297 11.4196C34.6233 11.4022 34.7193 11.4022 34.8129 11.4196C34.9557 11.4194 35.0962 11.457 35.2192 11.5284C35.342 11.5998 35.4429 11.7024 35.5109 11.8252L38.7944 17.3562C38.8897 17.5215 38.9212 17.7148 38.8831 17.9008C38.8451 18.0869 38.7399 18.2534 38.5869 18.3702L35.1335 21.0251C35.2846 22.0523 35.2846 23.0953 35.1335 24.1224L38.5869 26.7773C38.7369 26.8965 38.8383 27.0643 38.8728 27.2503C38.9075 27.4361 38.873 27.6281 38.7755 27.7913L35.5109 33.3223C35.4399 33.4427 35.3384 33.5432 35.2162 33.6143C35.0939 33.6851 34.955 33.7243 34.8129 33.7279C34.7131 33.7472 34.6106 33.7472 34.5108 33.7279L30.5482 31.9764C29.6952 32.6115 28.7632 33.1382 27.7741 33.5436L27.1704 37.7655C27.1392 37.9545 27.0406 38.1264 26.8921 38.2513C26.7436 38.3762 26.5548 38.4458 26.3589 38.4476H19.7354C19.5386 38.4495 19.3475 38.3813 19.1983 38.2558C19.049 38.1304 18.9515 37.956 18.924 37.7655L18.3013 33.5436C17.3184 33.1378 16.3926 32.6113 15.5462 31.9764L11.4703 33.5436C11.3768 33.561 11.2807 33.561 11.1872 33.5436C11.0442 33.5438 10.9038 33.5061 10.7809 33.4348C10.658 33.3634 10.5571 33.2608 10.489 33.1378L7.20558 27.6069C7.11025 27.4416 7.07877 27.2484 7.11685 27.0623C7.15495 26.8763 7.26009 26.7098 7.41316 26.5929L10.8664 23.9381C10.6901 22.9129 10.6901 21.8661 10.8664 20.8406L7.41316 18.278C7.26009 18.1613 7.15495 17.9947 7.11685 17.8086C7.07877 17.6226 7.11025 17.4293 7.20558 17.264L10.489 11.7331C10.5686 11.6273 10.6745 11.543 10.7966 11.4881C10.9188 11.4333 11.0532 11.4097 11.1872 11.4196C11.2807 11.4022 11.3768 11.4022 11.4703 11.4196L15.5462 13.0236C16.3905 12.3759 17.3164 11.8368 18.3013 11.4196L18.924 7.19766C18.9515 7.0071 19.049 6.83282 19.1983 6.70731C19.3475 6.5818 19.5386 6.51362 19.7354 6.51552H26.2646ZM23 28.0125C24.1196 28.0125 25.2142 27.6881 26.1451 27.0804C27.0761 26.4726 27.8017 25.6088 28.2301 24.5981C28.6586 23.5875 28.7707 22.4754 28.5522 21.4026C28.3338 20.3297 27.7947 19.3442 27.0029 18.5706C26.2113 17.7971 25.2026 17.2703 24.1044 17.0569C23.0062 16.8435 21.8681 16.953 20.8336 17.3716C19.7992 17.7902 18.915 18.4992 18.293 19.4087C17.6709 20.3183 17.3389 21.3876 17.3389 22.4816C17.3389 23.9484 17.9353 25.3553 18.997 26.3925C20.0587 27.4298 21.4985 28.0125 23 28.0125ZM26.2646 3.75002H19.7354C18.8721 3.7471 18.0357 4.04395 17.3755 4.58762C16.7154 5.1313 16.2744 5.88643 16.1312 6.71832L15.7161 9.57598L15.2066 9.87096L12.5459 8.82008C12.1112 8.65969 11.6518 8.57241 11.1872 8.56197C10.5414 8.56699 9.90875 8.74054 9.35469 9.06471C8.80062 9.38886 8.3453 9.8518 8.03589 10.4056L4.77132 15.9366C4.33368 16.6698 4.17871 17.5318 4.33443 18.3668C4.49015 19.2019 4.94628 19.9551 5.62049 20.4904L7.90379 22.1865C7.90379 22.2788 7.90379 22.4816 7.90379 22.4816C7.90379 22.4816 7.90379 22.6843 7.90379 22.7766L5.63935 24.5096C4.95262 25.035 4.48293 25.7848 4.31654 26.6213C4.15015 27.4579 4.29822 28.3251 4.73358 29.0634L8.017 34.5943C8.32644 35.1482 8.78176 35.6111 9.33582 35.9353C9.88989 36.2595 10.5226 36.4329 11.1683 36.438C11.6273 36.4324 12.0813 36.3448 12.5081 36.18L15.1877 35.1291L15.6972 35.424L16.0935 38.1894C16.2417 39.0304 16.6838 39.7952 17.3445 40.3532C18.0051 40.9114 18.8435 41.2283 19.7165 41.25H26.2456C27.1091 41.253 27.9455 40.956 28.6057 40.4124C29.2657 39.8687 29.7067 39.1136 29.8499 38.2817L30.284 35.3871L30.7934 35.0921L33.4541 36.1431C33.8879 36.3068 34.3479 36.3941 34.8129 36.4013C35.4577 36.3923 36.0888 36.2171 36.6423 35.8935C37.1956 35.5697 37.6516 35.1088 37.9642 34.5576L41.2287 29.0265C41.6664 28.2934 41.8212 27.4314 41.6656 26.5963C41.5098 25.7612 41.0536 25.008 40.3796 24.4727L38.0962 22.7766V22.1865L40.3606 20.4536C41.0474 19.9281 41.5171 19.1783 41.6834 18.3418C41.8499 17.5053 41.7018 16.6382 41.2664 15.8997L37.9829 10.3688C37.6736 9.81493 37.2183 9.35198 36.6642 9.02783C36.1102 8.70368 35.4774 8.53011 34.8316 8.52508C34.3726 8.53082 33.9187 8.61829 33.4919 8.7832L30.8124 9.8341L30.284 9.57598L29.8876 6.81049C29.8784 6.76174 29.8784 6.71175 29.8876 6.663C29.7097 5.85223 29.2571 5.12374 28.6031 4.5952C27.9492 4.06665 27.1319 3.7689 26.2835 3.75002H26.2646ZM23 25.3024C22.4291 25.3024 21.8707 25.137 21.3959 24.8269C20.9212 24.5169 20.5511 24.0765 20.3326 23.5611C20.1142 23.0456 20.057 22.4784 20.1684 21.9313C20.2797 21.384 20.5546 20.8815 20.9585 20.487C21.3622 20.0925 21.8767 19.8238 22.4367 19.7151C22.9968 19.6061 23.5773 19.662 24.1049 19.8756C24.6324 20.0889 25.0833 20.4506 25.4006 20.9145C25.7178 21.3784 25.8871 21.9236 25.8871 22.4816C25.8871 23.2298 25.583 23.9471 25.0415 24.4763C24.5 25.0052 23.7657 25.3024 23 25.3024Z" fill="#505F79"/>
</svg>
