<svg width="27" height="28" viewBox="0 0 27 28" fill="none" xmlns="http://www.w3.org/2000/svg">
<path fill-rule="evenodd" clip-rule="evenodd" d="M18.304 6.762H22.297C22.5158 6.762 22.7257 6.84892 22.8804 7.00364C23.0351 7.15835 23.122 7.3682 23.122 7.587C23.122 7.8058 23.0351 8.01565 22.8804 8.17036C22.7257 8.32508 22.5158 8.412 22.297 8.412H21.263V20.897C21.263 21.9832 20.8323 23.0253 20.0651 23.7944C19.2981 24.5635 18.2573 24.9971 17.171 25H9.25102C8.16475 24.9971 7.12395 24.5635 6.35686 23.7944C5.58978 23.0253 5.15902 21.9832 5.15902 20.897V8.412H4.12502C3.90622 8.412 3.69637 8.32508 3.54166 8.17036C3.38694 8.01565 3.30002 7.8058 3.30002 7.587C3.30002 7.3682 3.38694 7.15835 3.54166 7.00364C3.69637 6.84892 3.90622 6.762 4.12502 6.762H8.22802C8.58265 5.69522 9.25567 4.76272 10.1564 4.0901C11.0572 3.41747 12.1425 3.03703 13.266 3C14.3777 3.02969 15.4541 3.39564 16.3535 4.04958C17.253 4.7035 17.933 5.61471 18.304 6.663V6.762ZM15.1851 5.25027C14.6127 4.87771 13.9487 4.67003 13.266 4.65C12.5849 4.6708 11.9227 4.87892 11.3522 5.25151C10.7817 5.6241 10.3249 6.14674 10.032 6.762H16.511C16.2163 6.14588 15.7575 5.62284 15.1851 5.25027ZM19.4303 21.8349C19.5524 21.5373 19.6145 21.2186 19.613 20.897V8.412H6.80902V20.897C6.80901 21.5457 7.06595 22.1679 7.52359 22.6276C7.98125 23.0873 8.60235 23.3471 9.25102 23.35H17.171C17.4927 23.35 17.8111 23.2865 18.1081 23.1631C18.4051 23.0397 18.6747 22.8588 18.9017 22.6308C19.1286 22.4029 19.3082 22.1324 19.4303 21.8349ZM11.1536 19.225C11.3716 19.2221 11.5797 19.1342 11.7338 18.9801C11.8879 18.826 11.9758 18.6179 11.9786 18.4V13.395C11.9786 13.1761 11.8917 12.9663 11.737 12.8116C11.5822 12.6569 11.3725 12.57 11.1536 12.57C10.9348 12.57 10.725 12.6569 10.5703 12.8116C10.4156 12.9663 10.3286 13.1761 10.3286 13.395V18.4C10.3315 18.6179 10.4193 18.826 10.5734 18.9801C10.7275 19.1342 10.9357 19.2221 11.1536 19.225ZM15.2679 19.225C15.4858 19.2221 15.694 19.1342 15.8481 18.9801C16.0022 18.826 16.09 18.6179 16.0929 18.4V13.395C16.0929 13.1761 16.006 12.9663 15.8512 12.8116C15.6966 12.6569 15.4867 12.57 15.2679 12.57C15.0491 12.57 14.8392 12.6569 14.6846 12.8116C14.5298 12.9663 14.4429 13.1761 14.4429 13.395V18.4C14.4458 18.6179 14.5335 18.826 14.6877 18.9801C14.8418 19.1342 15.05 19.2221 15.2679 19.225Z" fill="#505F79"/>
</svg>
