<svg width="25" height="25" viewBox="0 0 25 25" fill="none" xmlns="http://www.w3.org/2000/svg">
<path fill-rule="evenodd" clip-rule="evenodd" d="M15.8003 3.05774L19.7003 7.31774C20.2027 7.87049 20.4809 8.59078 20.4803 9.33774V19.0577C20.4803 19.8533 20.1642 20.6164 19.6016 21.179C19.039 21.7416 18.276 22.0577 17.4803 22.0577H7.02031C6.22466 22.0577 5.4616 21.7416 4.89899 21.179C4.33638 20.6164 4.02031 19.8533 4.02031 19.0577V5.05774C4.02031 4.26209 4.33638 3.49903 4.89899 2.93642C5.4616 2.37381 6.22466 2.05774 7.02031 2.05774H13.5903C14.008 2.06138 14.4203 2.15221 14.8009 2.32441C15.1815 2.49661 15.5219 2.74639 15.8003 3.05774ZM15.2503 7.31774H17.7003L14.6803 4.04774C14.5753 3.92971 14.45 3.83149 14.3103 3.75774V6.37774C14.3103 6.62704 14.4094 6.86614 14.5856 7.04242C14.7619 7.2187 15.001 7.31774 15.2503 7.31774ZM18.541 20.1184C18.8223 19.8371 18.9803 19.4555 18.9803 19.0577L18.9703 9.33774C18.9681 9.15985 18.9342 8.98377 18.8703 8.81774H15.2503C14.6049 8.8151 13.9869 8.55686 13.5314 8.09955C13.076 7.64225 12.8203 7.02314 12.8203 6.37774V3.55774H7.02031C6.62248 3.55774 6.24095 3.71578 5.95965 3.99708C5.67834 4.27838 5.52031 4.65992 5.52031 5.05774V19.0577C5.52031 19.4555 5.67834 19.8371 5.95965 20.1184C6.24095 20.3997 6.62248 20.5577 7.02031 20.5577H17.4803C17.8781 20.5577 18.2597 20.3997 18.541 20.1184ZM15.3452 16.478C15.3903 16.3809 15.4125 16.2748 15.4101 16.1677C15.4078 16.0393 15.3771 15.9129 15.3201 15.7977L12.7001 10.4177C12.6139 10.2427 12.4783 10.0967 12.3101 9.99779C12.1378 9.90587 11.9455 9.85779 11.7501 9.85779C11.5548 9.85779 11.3625 9.90587 11.1901 9.99779C11.022 10.0938 10.8889 10.2409 10.8101 10.4177L8.18013 15.7977C8.12318 15.9129 8.09244 16.0393 8.09013 16.1677C8.09163 16.2761 8.11759 16.3828 8.16608 16.4798C8.21456 16.5767 8.28431 16.6615 8.37013 16.7277C8.53905 16.8755 8.75571 16.9572 8.98013 16.9577C9.12863 16.958 9.27419 16.9164 9.40013 16.8377C9.53511 16.7518 9.63996 16.626 9.70013 16.4777L10.1601 15.4777H13.3801L13.8301 16.4777C13.8903 16.626 13.9952 16.7518 14.1301 16.8377C14.2561 16.9164 14.4016 16.958 14.5501 16.9577C14.7713 16.9557 14.9843 16.874 15.1501 16.7277C15.2334 16.6605 15.3001 16.575 15.3452 16.478ZM11.7801 11.8477L12.7801 14.0577H10.7801L11.7801 11.8477Z" fill="#505F79"/>
</svg>
