<svg width="46" height="45" viewBox="0 0 46 45" fill="none" xmlns="http://www.w3.org/2000/svg">
<path fill-rule="evenodd" clip-rule="evenodd" d="M23.8189 41.1302C24.0911 41.2274 24.3801 41.2682 24.6685 41.2504V41.2129C25.1036 41.1782 25.5169 41.0078 25.8497 40.7254L26.0567 40.5424C28.2263 38.6239 29.9299 37.1175 31.4747 35.6817L32.3747 34.8567C34.0367 33.4512 35.5451 31.8736 36.8747 30.1504C39.8098 25.3956 40.7404 19.6712 39.4622 14.2317C39.009 11.7783 37.8126 9.52353 36.0351 7.77283C34.2574 6.02212 31.9847 4.86011 29.5247 4.44416C27.2291 3.97762 24.8923 3.74518 22.5497 3.75041C18.8822 3.61935 15.2439 4.44654 11.9935 6.15041C7.99978 8.60666 5.93728 13.3692 6.12478 19.5379C6.05002 23.9674 7.58955 28.2726 10.456 31.6504C13.1748 34.5004 18.331 35.9067 22.3997 36.1317V39.1504C22.4044 39.4394 22.4674 39.7244 22.5851 39.9882C22.7029 40.2522 22.873 40.4894 23.085 40.6857C23.2971 40.882 23.5468 41.0331 23.8189 41.1302ZM13.3998 8.45666C16.2337 7.04332 19.3885 6.39688 22.5497 6.58166C24.7033 6.57699 26.8519 6.79059 28.9622 7.21916C30.868 7.52057 32.6342 8.40255 34.02 9.7448C35.4058 11.087 36.3439 12.8242 36.706 14.7192C37.8353 19.4091 37.0671 24.3552 34.5685 28.4817C33.3741 30.0291 32.0233 31.4491 30.5372 32.7192L29.6372 33.5442C28.3435 34.7442 26.9372 36.0004 25.2122 37.5004V35.1004C25.2148 34.8683 25.171 34.6379 25.0832 34.423C24.9955 34.2079 24.8659 34.0127 24.7016 33.8485C24.5374 33.6844 24.3422 33.5547 24.1271 33.4669C23.9123 33.3794 23.682 33.3355 23.4497 33.3379C19.831 33.3379 14.7498 32.0629 12.481 29.7192C10.0807 26.8394 8.79632 23.1925 8.86228 19.4442C8.76853 16.4817 9.23728 11.1192 13.3998 8.45666ZM29.2811 19.219H15.4999C15.127 19.219 14.7693 19.0709 14.5056 18.8071C14.2418 18.5434 14.0937 18.1857 14.0937 17.8127C14.0937 17.4398 14.2418 17.0821 14.5056 16.8184C14.7693 16.5546 15.127 16.4065 15.4999 16.4065H29.2811C29.6541 16.4065 30.0118 16.5546 30.2756 16.8184C30.5393 17.0821 30.6874 17.4398 30.6874 17.8127C30.6874 18.1857 30.5393 18.5434 30.2756 18.8071C30.0118 19.0709 29.6541 19.219 29.2811 19.219ZM26.7499 24.8627H15.4999C15.127 24.8627 14.7693 24.7146 14.5056 24.4508C14.2418 24.1872 14.0937 23.8294 14.0937 23.4565C14.0937 23.0836 14.2418 22.7258 14.5056 22.4622C14.7693 22.1984 15.127 22.0502 15.4999 22.0502H26.7499C27.1228 22.0502 27.4806 22.1984 27.7444 22.4622C28.008 22.7258 28.1561 23.0836 28.1561 23.4565C28.1561 23.8294 28.008 24.1872 27.7444 24.4508C27.4806 24.7146 27.1228 24.8627 26.7499 24.8627Z" fill="#505F79"/>
</svg>
