<svg width="22" height="22" viewBox="0 0 22 22" fill="none" xmlns="http://www.w3.org/2000/svg">
<path fill-rule="evenodd" clip-rule="evenodd" d="M12.6591 14.7866C12.0672 15.0321 11.4327 15.1585 10.7918 15.1585C10.151 15.1585 9.51641 15.0321 8.92443 14.7866C8.33246 14.5411 7.79473 14.1812 7.342 13.7277C6.88926 13.2741 6.53042 12.7357 6.28599 12.1433C6.04156 11.5509 5.91636 10.9161 5.91754 10.2752V6.93878C5.91754 5.64605 6.43108 4.40626 7.34518 3.49215C8.25929 2.57805 9.49906 2.06451 10.7918 2.06451C12.0846 2.06451 13.3244 2.57805 14.2384 3.49215C15.1526 4.40626 15.6661 5.64605 15.6661 6.93878V10.2752C15.6673 10.9161 15.5421 11.5509 15.2976 12.1433C15.0532 12.7357 14.6944 13.2741 14.2416 13.7277C13.7889 14.1812 13.2512 14.5411 12.6591 14.7866ZM8.29905 4.44601C7.63793 5.10713 7.26651 6.00381 7.26651 6.93878V10.2752C7.26651 11.2101 7.63793 12.1068 8.29905 12.768C8.96016 13.4291 9.8568 13.8005 10.7918 13.8005C11.7267 13.8005 12.6234 13.4291 13.2845 12.768C13.9457 12.1068 14.3171 11.2101 14.3171 10.2752V6.93878C14.3171 6.00381 13.9457 5.10713 13.2845 4.44601C12.6234 3.7849 11.7267 3.41348 10.7918 3.41348C9.8568 3.41348 8.96016 3.7849 8.29905 4.44601ZM16.8106 12.9238C16.9789 12.8767 17.1589 12.8977 17.3119 12.9821C17.3912 13.0245 17.4612 13.0822 17.5179 13.152C17.5745 13.2218 17.6167 13.3022 17.6418 13.3885C17.667 13.4748 17.6745 13.5653 17.6643 13.6546C17.6539 13.7439 17.6259 13.8302 17.5817 13.9084C16.9489 14.9939 16.0649 15.9116 15.0039 16.5845C13.943 17.2574 12.7359 17.6658 11.4844 17.7755V19.3313C11.4844 19.5102 11.4133 19.6817 11.2868 19.8082C11.1604 19.9347 10.9888 20.0058 10.8099 20.0058C10.631 20.0058 10.4594 19.9347 10.333 19.8082C10.2065 19.6817 10.1354 19.5102 10.1354 19.3313V17.7305C8.88383 17.6209 7.67684 17.2124 6.61584 16.5395C5.55485 15.8666 4.67085 14.9489 4.03809 13.8635C3.95592 13.71 3.93625 13.5308 3.98318 13.3632C4.03011 13.1956 4.14 13.0527 4.2899 12.9642C4.44285 12.8797 4.62288 12.8588 4.79114 12.9058C4.9594 12.9529 5.10238 13.0643 5.18921 13.216C5.75209 14.1842 6.55518 14.9908 7.52088 15.558C8.48658 16.1251 9.58224 16.4335 10.702 16.4535H10.7919H10.8818C12.0029 16.4385 13.1012 16.1341 14.0701 15.5701C15.039 15.006 15.8459 14.2013 16.4126 13.234C16.4995 13.0823 16.6424 12.9709 16.8106 12.9238Z" fill="#505F79"/>
</svg>
