<svg width="46" height="45" viewBox="0 0 46 45" fill="none" xmlns="http://www.w3.org/2000/svg">
<path d="M17.225 8.475C17.9709 8.475 18.6863 8.77133 19.2137 9.29876C19.7413 9.8262 20.0375 10.5416 20.0375 11.2875V11.8125C20.0375 12.5584 20.3337 13.2738 20.8612 13.8012C21.3886 14.3287 22.1041 14.625 22.85 14.625H36.125C36.8709 14.625 37.5864 14.9213 38.1138 15.4488C38.6413 15.9762 38.9375 16.6916 38.9375 17.4375V31.9875C38.918 32.7204 38.6129 33.4166 38.0877 33.9279C37.5624 34.4393 36.8581 34.7252 36.125 34.725H9.875C9.12909 34.725 8.4137 34.4287 7.88626 33.9013C7.35883 33.3739 7.0625 32.6584 7.0625 31.9125V11.2875C7.0625 10.5416 7.35883 9.8262 7.88626 9.29876C8.4137 8.77133 9.12909 8.475 9.875 8.475H17.225ZM17.225 5.6625H9.875C8.38316 5.6625 6.95242 6.25513 5.89752 7.31002C4.84263 8.36492 4.25 9.79566 4.25 11.2875V31.9125C4.25 33.4043 4.84263 34.8351 5.89752 35.8899C6.95242 36.9448 8.38316 37.5375 9.875 37.5375H36.125C37.6167 37.5375 39.0476 36.9448 40.1024 35.8899C41.1573 34.8351 41.75 33.4043 41.75 31.9125V17.4C41.75 15.9082 41.1573 14.4774 40.1024 13.4225C39.0476 12.3676 37.6167 11.775 36.125 11.775H22.85V11.25C22.85 9.75816 22.2573 8.32742 21.2024 7.27252C20.1476 6.21763 18.7168 5.625 17.225 5.625V5.6625Z" fill="#505F79"/>
</svg>
