<svg width="24" height="25" viewBox="0 0 24 25" fill="none" xmlns="http://www.w3.org/2000/svg">
<path fill-rule="evenodd" clip-rule="evenodd" d="M8 2.05774H16C17.5913 2.05774 19.1174 2.68988 20.2426 3.8151C21.3679 4.94032 22 6.46644 22 8.05774V16.0577C22 17.649 21.3679 19.1751 20.2426 20.3003C19.1174 21.4256 17.5913 22.0577 16 22.0577H8C6.4087 22.0577 4.88258 21.4256 3.75736 20.3003C2.63214 19.1751 2 17.649 2 16.0577V8.05774C2 6.46644 2.63214 4.94032 3.75736 3.8151C4.88258 2.68988 6.4087 2.05774 8 2.05774ZM19.1791 19.2368C20.0224 18.3934 20.4974 17.2504 20.5 16.0577V8.05774C20.4974 6.86508 20.0224 5.72202 19.1791 4.87868C18.3357 4.03534 17.1927 3.56038 16 3.55774H8C6.80734 3.56038 5.66428 4.03534 4.82094 4.87868C3.9776 5.72202 3.50264 6.86508 3.5 8.05774V16.0577C3.50264 17.2504 3.9776 18.3934 4.82094 19.2368C5.66428 20.0801 6.80734 20.5551 8 20.5577H16C17.1927 20.5551 18.3357 20.0801 19.1791 19.2368ZM10.7787 8.08935C10.9663 8.11236 11.1436 8.18806 11.2899 8.3077L14.9199 11.3077C15.0346 11.4007 15.1273 11.518 15.1913 11.6512C15.2552 11.7843 15.2889 11.9299 15.2899 12.0777C15.2889 12.2254 15.2552 12.371 15.1913 12.5042C15.1273 12.6373 15.0346 12.7546 14.9199 12.8477L11.2899 15.8477C11.11 15.9967 10.8836 16.0781 10.6499 16.0777C10.5039 16.0789 10.3597 16.0446 10.2299 15.9777C10.0579 15.898 9.91199 15.7712 9.8093 15.6118C9.70661 15.4525 9.65133 15.2672 9.6499 15.0777V9.0777C9.65133 8.88813 9.70661 8.70288 9.8093 8.54353C9.91199 8.38419 10.0579 8.25731 10.2299 8.1777C10.4008 8.09697 10.5911 8.06634 10.7787 8.08935Z" fill="#505F79"/>
</svg>
