<svg width="23" height="22" viewBox="0 0 23 22" fill="none" xmlns="http://www.w3.org/2000/svg">
<path fill-rule="evenodd" clip-rule="evenodd" d="M5.55009 2.06453H17.367C17.7724 2.06334 18.1741 2.14232 18.5489 2.29692C18.9236 2.45152 19.2642 2.67868 19.5508 2.96535C19.8375 3.25202 20.0647 3.59255 20.2193 3.96732C20.3739 4.3421 20.4528 4.74375 20.4517 5.14916V16.9661C20.4528 17.3715 20.3739 17.7731 20.2193 18.148C20.0647 18.5227 19.8375 18.8633 19.5508 19.1499C19.2642 19.4366 18.9236 19.6638 18.5489 19.8184C18.1741 19.9729 17.7724 20.0519 17.367 20.0507H5.55009C5.14468 20.0519 4.74303 19.9729 4.36825 19.8184C3.99347 19.6638 3.65295 19.4366 3.36628 19.1499C3.07961 18.8633 2.85245 18.5227 2.69785 18.148C2.54325 17.7731 2.46427 17.3715 2.46545 16.9661V5.14916C2.46427 4.74375 2.54325 4.3421 2.69785 3.96732C2.85245 3.59255 3.07961 3.25202 3.36628 2.96535C3.65295 2.67868 3.99347 2.45152 4.36825 2.29692C4.74303 2.14232 5.14468 2.06334 5.55009 2.06453ZM17.367 3.41349H5.55009C5.32183 3.41231 5.0956 3.45639 4.88447 3.54319C4.67335 3.62999 4.48155 3.75779 4.32013 3.9192C4.15872 4.08062 4.03092 4.27242 3.94412 4.48355C3.85732 4.69467 3.81323 4.9209 3.81442 5.14916V14.3491L5.74794 12.8562C6.07922 12.5469 6.5179 12.3785 6.97112 12.3869C7.42434 12.3953 7.85649 12.5798 8.17608 12.9012L9.49807 13.9624L13.536 9.99644C13.8705 9.67754 14.3149 9.49966 14.777 9.49966C15.2392 9.49966 15.6836 9.67754 16.0181 9.99644L19.1027 13.153V5.14916C19.1039 4.9209 19.0598 4.69467 18.973 4.48355C18.8862 4.27242 18.7584 4.08062 18.597 3.9192C18.4356 3.75779 18.2438 3.62999 18.0327 3.54319C17.8215 3.45639 17.5953 3.41231 17.367 3.41349ZM5.55009 18.7018H17.367C17.5946 18.6994 17.8194 18.6521 18.0286 18.5626C18.2377 18.4732 18.4271 18.3431 18.5859 18.1802C18.7448 18.0172 18.8698 17.8245 18.9538 17.6131C19.0379 17.4016 19.0793 17.1756 19.0757 16.9481V15.0596L15.0738 10.9497C14.9951 10.8744 14.8904 10.8323 14.7815 10.8323C14.6726 10.8323 14.5679 10.8744 14.4892 10.9497L10.5592 14.8167L12.5917 16.4535C12.6853 16.5423 12.7514 16.6562 12.7822 16.7815C12.8131 16.9067 12.8073 17.0382 12.7657 17.1603C12.724 17.2825 12.6482 17.3901 12.5473 17.4704C12.4463 17.5507 12.3243 17.6005 12.196 17.6136C12.0414 17.6148 11.8915 17.5605 11.7733 17.4607L7.27677 13.8635C7.23497 13.8213 7.18524 13.7879 7.13044 13.7651C7.07565 13.7422 7.01688 13.7305 6.95751 13.7305C6.89816 13.7305 6.83939 13.7422 6.78459 13.7651C6.7298 13.7879 6.68007 13.8213 6.63826 13.8635L3.81442 16.0668V16.9661C3.81323 17.1943 3.85732 17.4206 3.94412 17.6318C4.03092 17.8428 4.15872 18.0347 4.32013 18.1961C4.48155 18.3575 4.67335 18.4853 4.88447 18.5721C5.0956 18.6589 5.32183 18.7029 5.55009 18.7018ZM8.04133 10.1223C8.03158 10.1125 8.01891 10.1062 8.00524 10.1044C7.32645 10.1387 6.65743 9.9316 6.11669 9.5198C5.69305 9.01851 5.47178 8.37711 5.49616 7.72122C5.45064 7.36025 5.50156 6.99369 5.64374 6.65879C5.7859 6.32391 6.01425 6.03266 6.30555 5.81468C6.78723 5.57275 7.32285 5.45819 7.86135 5.48194C8.21453 5.47914 8.56708 5.51229 8.91354 5.58086C9.25512 5.63593 9.57139 5.79502 9.8192 6.03643C10.0671 6.27784 10.2344 6.58981 10.2984 6.92983C10.483 7.72464 10.3508 8.56008 9.92973 9.259C9.69294 9.56765 9.428 9.85363 9.13838 10.1133C8.83261 10.3831 8.53583 10.6439 8.23906 10.8958H8.17611C8.1466 10.8958 8.11814 10.8848 8.09646 10.8648C8.07478 10.8448 8.06147 10.8173 8.0592 10.7878V10.1583C8.05735 10.1446 8.05107 10.132 8.04133 10.1223Z" fill="#505F79"/>
</svg>
